<svg data-name="Layer 1" xmlns="http://www.w3.org/2000/svg" viewBox="0 0 570.71 576.07"><path d="M278.36 199.29c-17.47-36.56-45.22-67.5-76.14-93.29-31.84-26.56-66.82-49.39-101.95-71.31C78.17 20.9 54.53 8.09 28.84 2.61 22.63 1.29 17 2.18 11.92 6.09 7.47 9.52 3.69 15.4 4.27 21.33 7.71 57 19.54 91.91 40.38 121.26a240.2 240.2 0 0 0 38.17 41.59c13.94 12.2 28.32 23.88 42.19 36.17q11.85 10.51 23.43 21.33a171.74 171.74 0 0 1 18.58 19.84l-3-3.93a79 79 0 0 1 9.61 16l-2-4.64a59.93 59.93 0 0 1 4.07 14.44l-.69-5.16a64.78 64.78 0 0 1 0 16.52l.7-5.16a95.78 95.78 0 0 1-7 24.29l1.95-4.64c-8 18.65-19.77 35.51-30.63 52.57q-17.55 27.62-35.11 55.21l-69.95 110c-6.16 9.77-13.7 19.48-17.6 30.45a27.77 27.77 0 0 0 4.46 26.13c4.88 6.31 11.88 9.38 19.27 11.78 18.42 6 39.21 5 57.54-.76 19.2-6 36.59-16.65 51.47-30.13 14.61-13.24 26.62-29.42 37.37-45.86 10.26-15.68 19.39-32.06 29.18-48q15.88-25.9 34-50.38 4.4-6 8.92-11.81l-3 3.93q9-11.7 18.56-23a130.73 130.73 0 0 1 19-19l-3.93 3a63 63 0 0 1 13.19-8l-4.64 2a39.7 39.7 0 0 1 9.25-2.62l-5.16.69a31.25 31.25 0 0 1 7.85 0l-5.16-.7a30.43 30.43 0 0 1 7.11 2l-4.64-2a37.36 37.36 0 0 1 6.76 4l-3.93-3c7.93 6.12 14.52 14.11 21.4 21.34l22.75 23.89 45.5 47.77 45.13 47.39c14.07 14.78 27.93 29.81 42.46 44.15C500 545 517.6 560.13 537.68 571c9.11 4.92 21.27 2.44 26.56-7 11.6-20.6 13.07-44.93 7.66-67.63-5.28-22.18-17.74-41.49-32.15-58.81-13.72-16.49-29.53-31.24-44.68-46.39l-49.35-49.31c-9-8.95-17.94-17.87-26.87-26.86a274.49 274.49 0 0 1-22.31-24.68l3 3.93a116 116 0 0 1-15-24.84l2 4.64a51.48 51.48 0 0 1-3.89-12.88l.7 5.16a24.81 24.81 0 0 1 0-5.31l-.69 5.16a18.93 18.93 0 0 1 1.15-4.23l-2 4.64a21.34 21.34 0 0 1 2.26-3.72l-3 3.93c3.09-3.79 7-6.88 10.65-10.14s7.48-6.76 11.19-10.17q11.31-10.41 22.4-21.06 22-21.16 43.07-43.28 42.36-44.47 80.69-92.57 4.89-6.12 9.7-12.32c3.56-4.56 7.48-9 9.87-14.29 3.4-7.58 5.51-15.77 2.93-24a28.67 28.67 0 0 0-20.16-19c-11.18-3-23.89-1.82-35.07.38-10.46 2.05-20.56 6.21-30.05 11-18.51 9.29-34.79 22.54-50.85 35.46q-24.6 19.78-48.44 40.55c-31.64 27.6-62 56.52-91.5 86.42a105.72 105.72 0 0 1-9.93 9.11l3.93-3a40.87 40.87 0 0 1-8.67 5.16l4.63-2a28.53 28.53 0 0 1-6.42 1.69l5.16-.69a22.52 22.52 0 0 1-4.42 0l5.16.69a20 20 0 0 1-4.62-1.23l4.64 2a23 23 0 0 1-4.12-2.41l3.93 3a36.19 36.19 0 0 1-6.19-6.3l3 3.93a80.728 80.728 0 0 1-3.72-5.33 20.44 20.44 0 0 0-11.61-8.92c-4.65-1.28-10.83-.71-15 2-8.51 5.49-12.86 17.44-7 26.57 5.2 8 11.57 16.37 20.39 20.72a37.12 37.12 0 0 0 18.05 4.23 48.39 48.39 0 0 0 19.31-5.13c8.41-4 15.45-11 21.91-17.56q10-10.22 20.25-20.28 40.08-39.47 82.88-76c15.93-13.6 32.05-27 48.63-39.85l-3.93 3c12.8-9.86 26.22-19.15 41.12-25.57l-4.64 2A92.87 92.87 0 0 1 531 57.06l-5.16.7a71.18 71.18 0 0 1 17.44-.22l-5.16-.69a20.23 20.23 0 0 1 5.14 1.31l-4.63-2a14.12 14.12 0 0 1 1.9 1.15l-3.93-3a11.37 11.37 0 0 1 1.56 1.62l-3-3.93a7.24 7.24 0 0 1 .73 1.26l-2-4.64a12.64 12.64 0 0 1 .62 2l-.7-5.16a13 13 0 0 1 .06 2.86l.69-5.16a19.22 19.22 0 0 1-1.22 4.47l2-4.64a37.07 37.07 0 0 1-4.59 7.64l3-3.93q-32.55 42-68.19 81.46t-74 75.87Q382 213.11 372.23 222q-4.87 4.45-9.77 8.84a81.73 81.73 0 0 0-8.84 8.51 37.89 37.89 0 0 0-9.19 22.56 44.52 44.52 0 0 0 2.33 16.21 111.8 111.8 0 0 0 11.92 25.29c9.34 14.78 21.37 27.67 33.65 40q19.83 19.92 39.76 39.74l40.38 40.35c12.36 12.35 25.06 24.5 36.53 37.68q4.08 4.68 7.88 9.58l-3-3.93a136.25 136.25 0 0 1 17.36 28.76l-2-4.64a99.7 99.7 0 0 1 6.83 24.35l-.7-5.16a82.19 82.19 0 0 1 .16 21.54l.69-5.16a66.83 66.83 0 0 1-4.43 16.39l2-4.63a66 66 0 0 1-3 6.13l26.57-7a175.77 175.77 0 0 1-23.74-15.57l3.93 3c-13.66-10.63-26-22.81-38-35.25-13.38-13.88-26.61-27.9-39.9-41.86l-81.82-85.92-20.6-21.51c-6.42-6.74-12.61-13.86-19.5-20.13-4-3.65-8.36-7.26-13.24-9.67a52.38 52.38 0 0 0-19.28-5.39c-10.25-1-21 2.61-29.86 7.4-16.3 8.79-28.39 23.4-39.86 37.52-12.35 15.2-24.17 30.84-35.31 46.94-10.31 14.89-19.94 30.21-29.19 45.78-8.75 14.75-17.36 29.6-27.19 43.67q-3.66 5.22-7.55 10.27l3-3.93c-8.34 10.73-17.59 20.79-28.33 29.17l3.93-3a121.32 121.32 0 0 1-26.1 15.44l4.64-2a97.64 97.64 0 0 1-24.57 6.88l5.17-.69a78.56 78.56 0 0 1-20.15.06l5.16.69a66.08 66.08 0 0 1-16.47-4.41l4.63 2a18.33 18.33 0 0 1-3.45-2l3.93 3a9 9 0 0 1-1.13-1.1l3 3.93a10.56 10.56 0 0 1-1.26-2.09l1.95 4.63a7.44 7.44 0 0 1-.43-1.62l.69 5.17a13.26 13.26 0 0 1 0-2.52l-.7 5.16a19.49 19.49 0 0 1 1.25-4.24l-2 4.63c1.8-3.9 4.33-7.45 6.63-11.07l7.14-11.22L77.7 504.2l29.41-46.2q29.25-46 58.52-92c19.08-30 43.06-61.48 44.47-98.45.68-18-5.6-35.84-16.34-50.16-10.25-13.69-22.64-25.11-35.27-36.55-12.91-11.71-26.11-23.08-39.45-34.3-12.7-10.67-25.39-21.47-36.4-33.92-2.53-2.86-5-5.81-7.3-8.82l3 3.93a187.63 187.63 0 0 1-24-41.16l2 4.64a190.21 190.21 0 0 1-13.13-47.95l.7 5.16q-.46-3.54-.81-7.09L18.52 40.06a150.28 150.28 0 0 1 26.77 8.54l-4.64-2C59.61 54.71 77 65.79 94.32 76.9c15.31 9.85 30.59 19.77 45.53 30.19q12.71 8.86 25 18.3l-3.93-3c22.76 17.61 44.16 37.15 61.85 59.94l-3-3.93a226.44 226.44 0 0 1 25.1 40.53c2 4.18 7.28 7.74 11.6 8.93 4.65 1.28 10.84.7 15-2s7.8-6.65 8.92-11.6c1.22-5.34.4-10-1.95-15Z" transform="translate(-4.21 -2.04)" style="fill:#1d1d1b"/></svg>